<svg width="50" height="60" viewBox="0 0 50 60" fill="none" xmlns="http://www.w3.org/2000/svg">
<circle cx="8.74603" cy="15.3603" r="3.46869" stroke="black" stroke-width="1.5"/>
<path d="M5.05467 22.7431C5.0538 23.7978 5.62274 31.6771 5.05467 38.0359C4.77737 41.1399 4 44.3639 4 45.4186C4 46.4733 4.73827 47.0006 5.58201 47.0006C6.42575 47.0006 6.98824 45.9459 7.16402 45.4186C7.16402 45.4186 8.74515 36.9812 8.74603 35.7253C8.74709 34.1912 9.27336 39.6179 9.27336 39.6179L9.8007 44.8912C9.8007 45.4186 10.1171 47.0006 11.3827 47.0006C12.6483 47.0006 12.9647 45.7701 12.9647 45.4186C12.9647 45.4186 13.1255 42.0839 12.9647 39.6179C12.7752 36.7117 12.0592 35.1438 11.91 32.2352C11.8257 30.5898 11.9092 30.1258 11.91 28.0165C11.9105 26.8377 14.0194 32.2352 14.0194 32.2352C14.1952 32.7625 14.8631 33.7117 16.1287 33.2899C17.3943 32.868 17.0076 31.7078 16.6561 31.1805C15.4256 28.7196 12.8592 23.4814 12.4374 22.2158C12.0155 20.9502 10.8554 20.6338 10.328 20.6338H7.69135C5.58201 20.6338 5.05554 21.6885 5.05467 22.7431Z" stroke="black" stroke-width="1.5"/>
<circle r="3.48525" transform="matrix(-1 0 0 1 41.0616 15.2353)" stroke="black" stroke-width="1.5"/>
<path d="M44.7674 22.6479C44.7682 23.7067 44.1971 31.617 44.7674 38.0007C45.0458 41.1169 45.8262 44.3536 45.8262 45.4124C45.8262 46.4712 45.085 47.0006 44.238 47.0006C43.3909 47.0006 42.8262 45.9418 42.6497 45.4124C42.6497 45.4124 41.0624 36.9419 41.0615 35.681C41.0604 34.141 40.5321 39.5889 40.5321 39.5889L40.0027 44.883C40.0027 45.4124 39.6851 47.0006 38.4145 47.0006C37.1439 47.0006 36.8263 45.7653 36.8263 45.4124C36.8263 45.4124 36.6648 42.0646 36.8263 39.5889C37.0165 36.6713 37.7353 35.0972 37.8851 32.1772C37.9698 30.5254 37.8859 30.0596 37.8851 27.942C37.8846 26.7586 35.7675 32.1772 35.7675 32.1772C35.591 32.7066 34.9204 33.6596 33.6498 33.236C32.3792 32.8125 32.7675 31.6478 33.1204 31.1184C34.3557 28.6478 36.9321 23.3891 37.3557 22.1185C37.7792 20.8479 38.9439 20.5303 39.4733 20.5303H42.1203C44.238 20.5303 44.7665 21.5891 44.7674 22.6479Z" stroke="black" stroke-width="1.5"/>
<path d="M31.2427 23.4914C30.2952 23.4914 22.8362 23.5222 19.2427 23.4728L22.7432 20.459" stroke="black" stroke-width="1.5" stroke-linecap="round" stroke-linejoin="round"/>
<path d="M19.2425 23.4725C19.3922 23.5818 21.7424 25.4595 23.2425 26.4596" stroke="black" stroke-width="1.5" stroke-linecap="round" stroke-linejoin="round"/>
<path d="M18.9995 34.9504C19.947 34.9504 27.406 34.9812 30.9995 34.9317L27.499 31.918" stroke="black" stroke-width="1.5" stroke-linecap="round" stroke-linejoin="round"/>
<path d="M30.9997 34.9315C30.85 35.0408 28.4998 36.9185 26.9997 37.9186" stroke="black" stroke-width="1.5" stroke-linecap="round" stroke-linejoin="round"/>
</svg>
