<svg width="50" height="60" viewBox="0 0 50 60" fill="none" xmlns="http://www.w3.org/2000/svg">
<g clip-path="url(#clip0_18_1175)">
<circle cx="14.3796" cy="15.6901" r="3.94014" stroke="white" stroke-width="1.5"/>
<path d="M14.9144 46.9577C14.9187 47.9753 15.9813 49.0458 16.9989 49.0458C18.0165 49.0458 19.0834 48.5211 19.0834 46.9577C19.0834 39.6585 19.0834 26.1162 19.0834 26.1162C19.0834 26.1162 19.0834 31.5026 19.0834 33.9296C19.0834 36.3565 23.2404 37.0563 23.2404 33.4084C23.2404 32.3661 23.2367 30.2858 23.2404 26.1162C23.2423 24.0281 21.798 22.4689 20.6468 22.4683C15.4318 22.4653 15.4194 22.4676 9.69076 22.4682C8.6732 22.4683 7.09001 23.5645 7.08686 25.5915C7.0804 29.7611 6.69332 33.6003 7.60713 34.9718C8.6488 36.5352 10.0996 35.7261 10.7342 34.4507C10.7342 34.4507 10.5365 43.6758 10.7342 47.1445C10.7878 48.0842 11.9096 49.2148 12.849 49.1554C14.5834 49.0458 14.9153 47.7718 14.9144 46.9577ZM14.9144 46.9577C14.901 43.8275 14.9144 36.0176 14.9144 36.0176C14.9144 36.0176 14.9087 41.6398 14.9144 46.9577Z" stroke="white" stroke-width="1.5"/>
<path d="M10.7374 26.1133C10.7374 26.1133 10.7305 40.1837 10.7375 46.9584C10.7387 48.1096 11.6635 49.0429 12.8148 49.0429C13.966 49.0429 14.8993 48.1096 14.8993 46.9584V36.2005" stroke="white" stroke-width="1.5"/>
<path d="M34.9995 48.9997C34.9995 45.9993 34.9022 22.3795 35.0587 11.0002L40.1857 19.9997" stroke="white" stroke-width="1.5" stroke-linecap="round" stroke-linejoin="round"/>
<path d="M35.0585 11.001C34.7125 11.4753 31.2425 17.2661 29.5508 20.1023" stroke="white" stroke-width="1.5" stroke-linecap="round" stroke-linejoin="round"/>
</g>
<defs>
<clipPath id="clip0_18_1175">
<rect width="50" height="60" fill="white"/>
</clipPath>
</defs>
</svg>
