<svg width="50" height="60" viewBox="0 0 50 60" fill="none" xmlns="http://www.w3.org/2000/svg">
<g clip-path="url(#clip0_18_1123)">
<circle cx="14.3796" cy="15.6901" r="3.94014" stroke="black" stroke-width="1.5"/>
<path d="M14.9144 46.9587C14.9187 47.9763 15.9813 49.0467 16.9989 49.0467C18.0165 49.0467 19.0834 48.5221 19.0834 46.9587C19.0834 39.6594 19.0834 26.1171 19.0834 26.1171C19.0834 26.1171 19.0834 31.5036 19.0834 33.9305C19.0834 36.3574 23.2404 37.0573 23.2404 33.4094C23.2404 32.3671 23.2367 30.2868 23.2404 26.1171C23.2423 24.0291 21.798 22.4699 20.6468 22.4693C15.4318 22.4663 15.4194 22.4686 9.69076 22.4692C8.6732 22.4693 7.09001 23.5654 7.08686 25.5925C7.0804 29.7621 6.69332 33.6013 7.60713 34.9728C8.6488 36.5362 10.0996 35.7271 10.7342 34.4517C10.7342 34.4517 10.5365 43.6767 10.7342 47.1455C10.7878 48.0852 11.9096 49.2158 12.849 49.1564C14.5834 49.0467 14.9153 47.7728 14.9144 46.9587ZM14.9144 46.9587C14.901 43.8285 14.9144 36.0186 14.9144 36.0186C14.9144 36.0186 14.9087 41.6407 14.9144 46.9587Z" stroke="black" stroke-width="1.5"/>
<path d="M10.7384 26.1123C10.7384 26.1123 10.7315 40.1827 10.7385 46.9574C10.7397 48.1086 11.6645 49.0419 12.8157 49.0419C13.967 49.0419 14.9002 48.1086 14.9002 46.9574V36.1995" stroke="black" stroke-width="1.5"/>
<path d="M35.0581 11.0003C35.0581 14.0007 35.1555 37.6205 34.9989 48.9998L29.8719 40.0003" stroke="black" stroke-width="1.5" stroke-linecap="round" stroke-linejoin="round"/>
<path d="M34.9991 48.999C35.3451 48.5247 38.8151 42.7339 40.5068 39.8977" stroke="black" stroke-width="1.5" stroke-linecap="round" stroke-linejoin="round"/>
</g>
<defs>
<clipPath id="clip0_18_1123">
<rect width="50" height="60" fill="white"/>
</clipPath>
</defs>
</svg>
