<svg width="60" height="60" viewBox="0 0 60 60" fill="none" xmlns="http://www.w3.org/2000/svg">
<path d="M39.4775 26.961L39.4775 26.9612C39.506 27.0676 39.5132 27.1786 39.4987 27.2877C39.4843 27.3969 39.4485 27.5022 39.3934 27.5976C39.3383 27.6929 39.2649 27.7765 39.1775 27.8435C39.0901 27.9105 38.9903 27.9596 38.8839 27.988C38.7775 28.0165 38.6666 28.0237 38.5574 28.0093C38.4482 27.9948 38.3429 27.959 38.2476 27.9039C38.1522 27.8488 38.0687 27.7754 38.0017 27.688C37.9347 27.6006 37.8855 27.5009 37.8571 27.3945C37.5186 26.1358 36.8552 24.9881 35.9336 24.0664C35.012 23.1448 33.8644 22.4815 32.6058 22.143L39.4775 26.961ZM39.4775 26.961C39.0625 25.4178 38.2493 24.0107 37.1193 22.8807C35.9893 21.7507 34.5822 20.9375 33.039 20.5225L33.0388 20.5225M39.4775 26.961L33.0388 20.5225M33.0388 20.5225C32.9324 20.494 32.8214 20.4868 32.7123 20.5013C32.6031 20.5157 32.4978 20.5515 32.4024 20.6066C32.3071 20.6617 32.2235 20.7351 32.1565 20.8225L32.2756 20.9138M33.0388 20.5225L32.2756 20.9138M32.2756 20.9138L32.1565 20.8225C32.0895 20.9099 32.0404 21.0097 32.012 21.1161C31.9835 21.2225 31.9763 21.3334 31.9907 21.4426C32.0052 21.5518 32.041 21.6571 32.0961 21.7524C32.1512 21.8478 32.2246 21.9313 32.312 21.9983L32.4032 21.8793M32.2756 20.9138L32.4032 21.8793M32.4032 21.8793L32.312 21.9983C32.3994 22.0653 32.4991 22.1145 32.6055 22.1429L32.4032 21.8793ZM46.1342 39.1977L46.1341 39.199C45.8515 41.3951 44.7792 43.4132 43.1174 44.8764C41.4555 46.3396 39.3179 47.1478 37.1037 47.15H37.1035C23.7299 47.15 12.85 36.2701 12.85 22.8965V22.8964C12.8522 20.6822 13.6603 18.5445 15.1235 16.8827C16.5867 15.2209 18.6048 14.1485 20.8009 13.866L20.8022 13.8658L20.8022 13.8658C21.278 13.8087 21.7596 13.9072 22.1748 14.1466C22.59 14.3859 22.9166 14.7533 23.1057 15.1937L23.1058 15.1938L26.5647 23.2643C26.7091 23.6002 26.7679 23.9667 26.736 24.3308C26.7041 24.695 26.5824 25.0455 26.3819 25.3512C26.3819 25.3512 26.3819 25.3513 26.3818 25.3513L23.5178 29.7275L23.517 29.7287C23.4665 29.8043 23.4363 29.8917 23.4295 29.9824C23.4228 30.0706 23.4385 30.1591 23.4749 30.2396L23.477 30.244C24.8251 32.994 27.0547 35.2138 29.8107 36.5497C29.8932 36.5877 29.9842 36.6037 30.0747 36.5963C30.1657 36.5888 30.2531 36.5579 30.3285 36.5065L30.3298 36.5056L34.6398 33.6315C34.9464 33.4264 35.2993 33.3013 35.6666 33.2676C36.0338 33.2338 36.4036 33.2925 36.7423 33.4382L46.1342 39.1977ZM46.1342 39.1977C46.1913 38.7218 46.0928 38.2403 45.8534 37.8251C45.614 37.4099 45.2467 37.0833 44.8063 36.8943L44.8062 36.8942L36.7425 33.4383L46.1342 39.1977ZM44.1461 38.4363L44.1453 38.436L36.0817 34.98L36.0815 34.98C35.9992 34.9446 35.9093 34.9303 35.8201 34.9385C35.7309 34.9467 35.6451 34.9771 35.5706 35.0269L35.5705 35.027L31.2605 37.9011C30.9425 38.114 30.5747 38.2407 30.193 38.2687C29.8114 38.2968 29.429 38.2253 29.0833 38.0612L29.0822 38.0607C25.9874 36.5609 23.4837 34.0684 21.9699 30.9804L21.9745 30.9771L21.9695 30.9795C21.8045 30.6359 21.7311 30.2554 21.7565 29.8751C21.7819 29.4948 21.9052 29.1275 22.1144 28.809L44.1461 38.4363ZM44.1461 38.4363C44.2526 38.4813 44.3417 38.5596 44.4 38.6594C44.4581 38.7589 44.4826 38.8745 44.4698 38.9891C44.239 40.7799 43.3642 42.4256 42.0089 43.6187C40.6532 44.8121 38.9095 45.4711 37.1034 45.4727C24.6551 45.4726 14.5274 35.345 14.5273 22.8966C14.5289 21.0906 15.1879 19.3468 16.3812 17.9912C17.5745 16.6355 19.2205 15.7607 21.0118 15.5301C21.0324 15.5274 21.0531 15.5261 21.0738 15.5261C21.1784 15.5272 21.2805 15.5588 21.3674 15.6169L21.4508 15.4923L21.3674 15.6169C21.4546 15.6752 21.5228 15.7577 21.5638 15.8542L21.564 15.8547L25.023 23.9251L25.0231 23.9252C25.0581 24.0068 25.0724 24.0959 25.0647 24.1844C25.0569 24.273 25.0274 24.3582 24.9786 24.4325L24.9785 24.4327L22.1145 28.8088L44.1461 38.4363ZM34.4653 15.1996L34.4651 15.1996C34.3587 15.1711 34.2477 15.1639 34.1385 15.1783C34.0293 15.1928 33.9241 15.2286 33.8287 15.2837L33.9038 15.4136L33.8287 15.2837C33.7334 15.3388 33.6498 15.4122 33.5828 15.4996C33.5158 15.587 33.4667 15.6868 33.4382 15.7932C33.3808 16.008 33.411 16.2369 33.5224 16.4295C33.6336 16.622 33.8168 16.7625 34.0316 16.8199C36.2244 17.4096 38.2237 18.5651 39.8293 20.1707C41.4349 21.7763 42.5904 23.7756 43.1801 25.9684C43.2085 26.0747 43.2576 26.1744 43.3246 26.2618C43.3916 26.3492 43.4751 26.4225 43.5705 26.4776L43.6456 26.3478L43.5705 26.4777C43.6658 26.5328 43.7711 26.5686 43.8803 26.583C43.9895 26.5974 44.1004 26.5902 44.2068 26.5618C44.3132 26.5333 44.413 26.4842 44.5004 26.4172C44.5878 26.3502 44.6612 26.2666 44.7163 26.1713L44.5864 26.0962L44.7163 26.1713C44.7714 26.0759 44.8072 25.9707 44.8217 25.8615C44.8361 25.7523 44.8289 25.6413 44.8004 25.5349L44.8004 25.5347C44.1342 23.0575 42.8288 20.7989 41.015 18.985C39.2011 17.1712 36.9425 15.8658 34.4653 15.1996Z" fill="white" stroke="white" stroke-width="0.3"/>
</svg>
