<svg width="35" height="35" viewBox="0 0 35 35" fill="none" xmlns="http://www.w3.org/2000/svg">
<path d="M3 6V4C3 2.89543 3.89543 2 5 2H21C22.1046 2 23 2.89543 23 4V6M3 6H23M3 6V30.5M23 6V30.5M3 30.5V32.5V32.5C3 33.3284 3.67157 34 4.5 34H21C22.1046 34 23 33.1046 23 32V30.5M3 30.5H23" stroke="black" stroke-linecap="round"/>
<path d="M7 15.4375V13H9.4375" stroke="black" stroke-linecap="round"/>
<path d="M7.40625 23.5625V26H9.84375" stroke="black" stroke-linecap="round"/>
<path d="M19.5938 15.4375V13H17.1562" stroke="black" stroke-linecap="round"/>
<path d="M19.5938 23.5625V26H17.1562" stroke="black" stroke-linecap="round"/>
<path d="M33.0253 22.5619L23 31.5L23 28V24.5C23 24.5 23.5002 16 22.5 13.5C21.4923 10.9814 18.5254 12.5615 17.5253 11.0619C16.648 9.74637 16.9495 8.59802 17.8405 7.56152C18.7406 6.5145 21.1983 7.18238 22.5259 7.56147C26.0259 8.56081 27.3617 10.2339 28.0259 11.5623C29.0259 13.5623 28.5253 19.5619 28.5253 19.5619L23 24.5L30.0253 18.5619L33.0253 22.5619Z" fill="white"/>
<path d="M23 24.5L30.0253 18.5619L33.0253 22.5619L23 31.5L23 28M23 24.5V28M23 24.5C23 24.5 23.5002 16 22.5 13.5C21.4923 10.9814 18.5254 12.5615 17.5253 11.0619C16.648 9.74637 16.9495 8.59802 17.8405 7.56152C18.7406 6.5145 21.1983 7.18238 22.5259 7.56147C26.0259 8.56081 27.3617 10.2339 28.0259 11.5623C29.0259 13.5623 28.5253 19.5619 28.5253 19.5619L23 24.5ZM28.5253 23.0619C28.1253 23.0619 24.5 26.5 23 28" stroke="black" stroke-linecap="round"/>
</svg>
