<svg width="65" height="65" viewBox="0 0 65 65" fill="none" xmlns="http://www.w3.org/2000/svg">
<path d="M6.5 27.9995V44C6.62904 48.0004 10.5538 48.6665 12.5 48.4995L16.1586 52.5651C16.589 53.0433 17.3523 52.9966 17.7212 52.4696L20.5 48.4995C20.5 48.4995 30 49 35 48.4995C36.3033 48.3691 37.0738 47.9261 38 47C39.3248 45.6754 39.5 45 39.5 43V29.0004C39.5 25.0004 37.9163 24 35 24H10C6.8 24 6.5 26.4995 6.5 27.9995Z" stroke="white" stroke-width="2"/>
<path d="M22 23.0004C22 19.0004 23.5837 18 26.5 18C33.5 18 48.3 18 51.5 18C54.7 18 55 20.4995 55 21.9995V38C54.871 42.0004 50.9462 42.6665 49 42.4995L45.2071 46.2928C44.8166 46.6834 44.1834 46.6834 43.7929 46.2929L39.5 42" stroke="white" stroke-width="2"/>
<circle cx="15.5" cy="36.5" r="2.5" fill="white"/>
<circle cx="22.5" cy="36.5" r="2.5" fill="white"/>
<circle cx="29.5" cy="36.5" r="2.5" fill="white"/>
</svg>
