<svg width="50" height="60" viewBox="0 0 50 60" fill="none" xmlns="http://www.w3.org/2000/svg">
<path d="M14 14H34.8C35.4627 14 36 14.5373 36 15.2V44.8C36 45.4627 35.4627 46 34.8 46H14M14 14V46M14 14L24.2101 17.7128C24.6843 17.8852 25 18.3359 25 18.8405V41.6225C25 42.1451 24.6618 42.6076 24.1638 42.766L14 46" stroke="white" stroke-width="1.6"/>
<mask id="path-2-inside-1_18_1206" fill="white">
<ellipse cx="22" cy="30" rx="1.5" ry="2.5"/>
</mask>
<path d="M21.9 30C21.9 30.4502 21.7872 30.7804 21.6887 30.9446C21.571 31.1406 21.6314 30.9 22 30.9V34.1C23.197 34.1 24.0074 33.2997 24.4326 32.591C24.877 31.8503 25.1 30.9305 25.1 30H21.9ZM22 30.9C22.3686 30.9 22.429 31.1406 22.3113 30.9446C22.2128 30.7804 22.1 30.4502 22.1 30H18.9C18.9 30.9305 19.123 31.8503 19.5674 32.591C19.9926 33.2997 20.803 34.1 22 34.1V30.9ZM22.1 30C22.1 29.5498 22.2128 29.2196 22.3113 29.0554C22.429 28.8594 22.3686 29.1 22 29.1V25.9C20.803 25.9 19.9926 26.7003 19.5674 27.409C19.123 28.1497 18.9 29.0695 18.9 30H22.1ZM22 29.1C21.6314 29.1 21.571 28.8594 21.6887 29.0554C21.7872 29.2196 21.9 29.5498 21.9 30H25.1C25.1 29.0695 24.877 28.1497 24.4326 27.409C24.0074 26.7003 23.197 25.9 22 25.9V29.1Z" fill="white" mask="url(#path-2-inside-1_18_1206)"/>
</svg>
