<svg width="35" height="35" viewBox="0 0 35 35" fill="none" xmlns="http://www.w3.org/2000/svg">
<path d="M13.7773 24.236C19.9871 24.236 25.0545 19.3883 25.0545 13.368C25.0545 7.3477 19.9871 2.5 13.7773 2.5C7.56742 2.5 2.5 7.3477 2.5 13.368C2.5 19.3883 7.56742 24.236 13.7773 24.236Z" stroke="black"/>
<path d="M13.5844 21.2119C18.0221 21.2119 21.6444 17.7136 21.6444 13.3679C21.6444 9.02224 18.0221 5.52393 13.5844 5.52393C9.14676 5.52393 5.52441 9.02224 5.52441 13.3679C5.52441 17.7136 9.14676 21.2119 13.5844 21.2119Z" stroke="black"/>
<path d="M19.8477 23.3039L27.2144 31.0799C27.2144 31.0799 29 33.2796 30.5 32C32 30.7204 29.9997 28.7039 29.9997 28.7039L22.8717 20.7119" stroke="black" stroke-linecap="round" stroke-linejoin="round"/>
</svg>
