<svg width="50" height="60" viewBox="0 0 50 60" fill="none" xmlns="http://www.w3.org/2000/svg">
<circle cx="24.3796" cy="24.6911" r="3.94014" stroke="white" stroke-width="1.5"/>
<path d="M24.9144 55.9597C24.9187 56.9772 25.9813 58.0477 26.9989 58.0477C28.0165 58.0477 29.0834 57.5231 29.0834 55.9597C29.0834 48.6604 29.0834 35.1181 29.0834 35.1181C29.0834 35.1181 29.0834 40.5046 29.0834 42.9315C29.0834 45.3584 33.2404 46.0583 33.2404 42.4104C33.2404 41.3681 33.2367 39.2878 33.2404 35.1181C33.2423 33.0301 31.798 31.4709 30.6468 31.4702C25.4318 31.4672 25.4194 31.4696 19.6908 31.4702C18.6732 31.4703 17.09 32.5664 17.0869 34.5935C17.0804 38.7631 16.6933 42.6023 17.6071 43.9738C18.6488 45.5371 20.0996 44.728 20.7342 43.4526C20.7342 43.4526 20.5365 52.6777 20.7342 56.1465C20.7878 57.0862 21.9096 58.2167 22.849 58.1573C24.5834 58.0477 24.9153 56.7737 24.9144 55.9597ZM24.9144 55.9597C24.901 52.8294 24.9144 45.0195 24.9144 45.0195C24.9144 45.0195 24.9087 50.6417 24.9144 55.9597Z" stroke="white" stroke-width="1.5"/>
<path d="M20.7384 35.1133C20.7384 35.1133 20.7315 49.1837 20.7385 55.9584C20.7397 57.1096 21.6645 58.0429 22.8157 58.0429C23.967 58.0429 24.9002 57.1096 24.9002 55.9584V45.2005" stroke="white" stroke-width="1.5"/>
<path d="M36.8006 30.8449L39.4039 15.444C39.4039 15.444 42.5658 15.5719 44.6056 16.2608C46.6455 16.9496 48.4118 19.2571 48.0803 21.2183C47.8986 22.2927 47.3538 25.5159 43.8059 25.2438C39.507 24.9142 36.1041 24.0332 36.1041 24.0332" stroke="white" stroke-width="1.5" stroke-linecap="round" stroke-linejoin="round"/>
<path d="M35.5957 27.0449L44.4325 28.434" stroke="white" stroke-width="1.5" stroke-linecap="round" stroke-linejoin="round"/>
<path d="M5.36608 32.5668L3.83254 17.0328C3.83254 17.0328 6.92462 16.383 9.07898 16.5503C11.2333 16.7176 13.5489 18.5174 13.7442 20.4956C13.8511 21.5793 14.1721 24.8303 10.6687 25.4351C6.42371 26.168 2.90036 26.1483 2.90036 26.1483" stroke="white" stroke-width="1.5" stroke-linecap="round" stroke-linejoin="round"/>
<path d="M3.19922 29.1875L12.1123 28.3692" stroke="white" stroke-width="1.5" stroke-linecap="round" stroke-linejoin="round"/>
<path d="M23.3661 17.5658L21.8325 2.03186C21.8325 2.03186 24.9246 1.38206 27.079 1.54933C29.2333 1.71659 31.5489 3.51646 31.7442 5.49466C31.8511 6.57833 32.1721 9.82932 28.6687 10.4342C24.4237 11.167 20.9004 11.1473 20.9004 11.1473" stroke="white" stroke-width="1.5" stroke-linecap="round" stroke-linejoin="round"/>
<path d="M21.1992 14.1865L30.1123 13.3683" stroke="white" stroke-width="1.5" stroke-linecap="round" stroke-linejoin="round"/>
</svg>
