<svg width="121" height="121" viewBox="0 0 121 121" fill="none" xmlns="http://www.w3.org/2000/svg">
<path d="M22.6995 69.5751C27.8495 77.5839 38.4688 94.0192 39.7467 95.6901L50.4942 94.6293L38.5172 69.1369C38.5172 69.1369 48.1683 67.142 55.8427 69.1369C67.7087 72.2215 78.2499 82.4307 78.2499 82.4307L71.4584 24.0363C71.4584 24.0363 61.7878 38.7756 47.2072 44.4125C37.7149 48.0823 32.06 49.6151 21.9629 50.8352C20.2451 51.0428 17.5537 51.2704 17.5537 51.2704C17.5537 51.2704 13.7737 56.7079 14.0228 60.604C14.2906 64.7949 19.3926 69.9015 19.3926 69.9015L22.6995 69.5751Z" fill="#EEF3FC" stroke="black" stroke-width="3" stroke-linecap="round" stroke-linejoin="round"/>
<path d="M64.8775 55.957C66.8998 67.7493 72.1404 83.4309 78.7451 83.1045C85.3497 82.7782 86.4451 64.4354 85.3497 51.8857C84.1647 38.3091 79.4046 22.6753 72.1416 23.3799C64.8788 24.0845 62.5072 42.1352 64.8775 55.957Z" fill="#EEF3FC" stroke="black" stroke-width="3" stroke-linecap="round" stroke-linejoin="round"/>
<path d="M66.6777 46.4595C66.6777 46.4595 76.1838 45.7803 76.8628 53.2494C77.5432 60.7335 68.0357 63.4346 68.0357 63.4346" stroke="black" stroke-width="3" stroke-linecap="round" stroke-linejoin="round"/>
<path d="M91.1221 36.2587L106.06 21.9995" stroke="black" stroke-width="3" stroke-linecap="round" stroke-linejoin="round"/>
<path d="M97.9121 48.6316L118.322 45.4852" stroke="black" stroke-width="3" stroke-linecap="round" stroke-linejoin="round"/>
<path d="M96.5535 64.7195L115.806 72.1912" stroke="black" stroke-width="3" stroke-linecap="round" stroke-linejoin="round"/>
</svg>
