<svg width="50" height="60" viewBox="0 0 50 60" fill="none" xmlns="http://www.w3.org/2000/svg">
<circle cx="23.7175" cy="14.6901" r="3.94014" stroke="black" stroke-width="1.5"/>
<path d="M24.2523 45.9587C24.2566 46.9763 25.3192 48.0467 26.3368 48.0467C27.3544 48.0467 28.4213 47.5221 28.4213 45.9587C28.4213 38.6594 28.4213 25.1171 28.4213 25.1171C28.4213 25.1171 28.4213 30.5036 28.4213 32.9305C28.4213 35.3574 32.5783 36.0573 32.5783 32.4094C32.5783 31.3671 32.5746 29.2868 32.5783 25.1171C32.5802 23.0291 31.1359 21.4699 29.9847 21.4693C24.7697 21.4663 24.7573 21.4686 19.0286 21.4692C18.0111 21.4693 16.4279 22.5654 16.4248 24.5925C16.4183 28.7621 16.0312 32.6013 16.945 33.9728C17.9867 35.5362 19.4375 34.7271 20.0721 33.4517C20.0721 33.4517 19.8744 42.6767 20.0721 46.1455C20.1257 47.0852 21.2475 48.2158 22.1869 48.1564C23.9213 48.0467 24.2532 46.7728 24.2523 45.9587ZM24.2523 45.9587C24.2389 42.8285 24.2523 35.0186 24.2523 35.0186C24.2523 35.0186 24.2466 40.6407 24.2523 45.9587Z" stroke="black" stroke-width="1.5"/>
<path d="M20.0763 25.1123C20.0763 25.1123 20.0694 39.1827 20.0764 45.9574C20.0776 47.1086 21.0024 48.0419 22.1536 48.0419C23.3049 48.0419 24.2381 47.1086 24.2381 45.9574V35.1995" stroke="black" stroke-width="1.5"/>
</svg>
