<svg width="50" height="60" viewBox="0 0 50 60" fill="none" xmlns="http://www.w3.org/2000/svg">
<circle cx="12.7745" cy="18.337" r="3.41901" stroke="white" stroke-width="1.5"/>
<circle cx="35.7042" cy="18.337" r="3.41901" stroke="white" stroke-width="1.5"/>
<circle cx="23.7175" cy="14.6901" r="3.94014" stroke="white" stroke-width="1.5"/>
<path d="M24.2523 45.9577C24.2566 46.9753 25.3192 48.0458 26.3368 48.0458C27.3544 48.0458 28.4213 47.5211 28.4213 45.9577C28.4213 38.6585 28.4213 25.1162 28.4213 25.1162C28.4213 25.1162 28.4213 30.5026 28.4213 32.9296C28.4213 35.3565 32.5783 36.0563 32.5783 32.4084C32.5783 31.3661 32.5746 29.2858 32.5783 25.1162C32.5802 23.0281 31.1359 21.4689 29.9847 21.4683C24.7697 21.4653 24.7573 21.4676 19.0286 21.4682C18.0111 21.4683 16.4279 22.5645 16.4248 24.5915C16.4183 28.7611 16.0312 32.6003 16.945 33.9718C17.9867 35.5352 19.4375 34.7261 20.0721 33.4507C20.0721 33.4507 19.8744 42.6758 20.0721 46.1445C20.1257 47.0842 21.2475 48.2148 22.1869 48.1554C23.9213 48.0458 24.2532 46.7718 24.2523 45.9577ZM24.2523 45.9577C24.2389 42.8275 24.2523 35.0176 24.2523 35.0176C24.2523 35.0176 24.2466 40.6398 24.2523 45.9577Z" stroke="white" stroke-width="1.5"/>
<path d="M20.0773 25.1133C20.0773 25.1133 20.0703 39.1837 20.0774 45.9584C20.0785 47.1096 21.0034 48.0429 22.1546 48.0429C23.3058 48.0429 24.2391 47.1096 24.2391 45.9584V35.2005" stroke="white" stroke-width="1.5"/>
<path d="M12.7878 47.5216C12.7878 47.5216 12.4557 49.0882 10.7072 49.0882C9.97345 49.0882 9.14454 48.2554 9.14384 47.5216C9.13988 43.3526 9.14384 28.7642 9.14384 28.7642V36.06C9.14384 36.06 8.61876 37.1023 7.58046 37.1023C6.54217 37.1023 6.00111 36.2695 6.00033 35.5357C5.99757 32.9301 6.01275 30.3269 6.01708 27.2008C6.01868 26.0496 6.95035 25.117 8.10159 25.1163C12.2706 25.1138 16.4396 25.1163 16.4396 25.1163V33.4544C16.4396 33.4544 16.4357 41.7861 16.4396 47.0005C16.4403 47.9107 16.105 49.0882 14.8723 49.0882C12.7878 49.0882 12.7878 47.5216 12.7878 47.5216ZM12.7878 47.5216V37.6202" stroke="white" stroke-width="1.5"/>
<path d="M36.2233 46.9991C36.2233 46.9991 36.5549 48.5656 38.3005 48.5656C39.0331 48.5656 39.8606 47.7328 39.8613 46.9991C39.8653 42.8302 39.8613 28.2426 39.8613 28.2426V35.538C39.8613 35.538 40.3855 36.5802 41.4221 36.5802C42.4587 36.5802 42.9989 35.7475 42.9997 35.0138C43.0024 32.4083 42.9873 29.8052 42.9829 26.6793C42.9814 25.5281 42.0512 24.5955 40.9018 24.5949C36.7397 24.5924 32.5775 24.5949 32.5775 24.5949V32.9325C32.5775 32.9325 32.5814 41.2639 32.5775 46.478C32.5768 47.3881 32.9115 48.5656 34.1422 48.5656C36.2233 48.5656 36.2233 46.9991 36.2233 46.9991ZM36.2233 46.9991V37.0982" stroke="white" stroke-width="1.5"/>
</svg>
