<svg width="15" height="12" viewBox="0 0 15 12" fill="none" xmlns="http://www.w3.org/2000/svg">
<path d="M4.34066 11.8L4.34027 11.8C4.18197 11.7994 4.02555 11.7677 3.88046 11.7069C3.73538 11.6461 3.60478 11.5576 3.49636 11.4469L0.461305 8.34702C0.277174 8.12721 0.185068 7.8491 0.201976 7.56763C0.21902 7.28389 0.345718 7.01577 0.558343 6.81748C0.771121 6.61904 1.05415 6.50542 1.35089 6.50084C1.64517 6.49631 1.92956 6.59938 2.14808 6.78822L4.21053 8.8883L4.35243 9.03279L4.49513 8.8891L12.7802 0.546754C12.7803 0.546704 12.7803 0.546653 12.7804 0.546603C12.8877 0.439244 13.0159 0.353206 13.158 0.293653C13.3001 0.234069 13.4531 0.202239 13.6081 0.200114C13.7632 0.197989 13.9171 0.225614 14.0609 0.281294C14.2047 0.336971 14.3355 0.41954 14.446 0.524027C14.5564 0.628503 14.6443 0.752828 14.7049 0.889752C14.7655 1.02666 14.7977 1.17364 14.7999 1.32234C14.802 1.47104 14.7741 1.61882 14.7175 1.7573C14.6609 1.89578 14.5766 2.02242 14.4693 2.12984L14.469 2.1301L5.18466 11.4582C5.18454 11.4584 5.18442 11.4585 5.1843 11.4586C5.07493 11.5671 4.944 11.6534 4.79911 11.7121C4.65404 11.771 4.49813 11.8009 4.34066 11.8Z" fill="white" stroke="#2B2B2B" stroke-width="0.4"/>
</svg>
