<svg width="12" height="14" viewBox="0 0 12 14" fill="none" xmlns="http://www.w3.org/2000/svg">
<path d="M5.99999 13.7143C6.84832 13.7124 7.57218 12.9886 7.71428 12H4.28571C4.4278 12.9886 5.15166 13.7124 5.99999 13.7143Z" fill="white"/>
<path d="M11.9442 11.5135C11.9298 11.4929 10.5 9.41538 10.5 7.69231V4.61538C10.5 2.06638 8.48527 0 6 0C3.51473 0 1.50002 2.06638 1.50002 4.61538V7.69231C1.50002 9.41538 0.0702297 11.4929 0.0558297 11.5135C-0.00945438 11.6073 -0.0181583 11.7307 0.0332773 11.8332C0.084713 11.9356 0.187663 12 0.300029 12H11.7C11.8123 12 11.9153 11.9356 11.9667 11.8332C12.0182 11.7307 12.0095 11.6073 11.9442 11.5135Z" fill="white"/>
</svg>
