<svg width="22" height="22" viewBox="0 0 22 22" fill="none" xmlns="http://www.w3.org/2000/svg">
<path d="M21.6432 7.1384L13.6629 5V15.1634C13.6629 15.9596 13.0116 16.605 12.2082 16.605H6.50753L6.01728 18.383C5.98325 18.5059 5.9999 18.6372 6.06355 18.748C6.12721 18.8587 6.23267 18.9399 6.35672 18.9736L17.5917 21.9837C17.633 21.9945 17.6756 22 17.7183 22C17.9375 22.0001 18.1295 21.8546 18.1867 21.6449L21.9831 7.72802C22.0168 7.6049 21.9997 7.47358 21.9355 7.36298C21.8714 7.25238 21.7655 7.17159 21.6413 7.1384H21.6432Z" fill="#F04037"/>
<rect width="12" height="15" rx="1" fill="#F04037"/>
</svg>
