<svg width="30" height="28" viewBox="0 0 30 28" fill="none" xmlns="http://www.w3.org/2000/svg">
<path fill-rule="evenodd" clip-rule="evenodd" d="M26.7391 0H3.26087C1.45994 0 0 1.49237 0 3.3333V17.9998C0 18.8838 0.343555 19.7317 0.955087 20.3568C1.56662 20.9819 2.39603 21.3331 3.26087 21.3331H9.46957L14.4913 27.7497C14.6151 27.9079 14.8025 28 15.0007 28C15.1988 28 15.3862 27.9079 15.51 27.7497L20.5304 21.3331H26.7391C28.5401 21.3331 30 19.8407 30 17.9998V3.3333C30 1.49237 28.5401 0 26.7391 0ZM16.375 14H7.625C7.27982 14 7 13.7761 7 13.5C7 13.2239 7.27982 13 7.625 13H16.375C16.7202 13 17 13.2239 17 13.5C17 13.7761 16.7202 14 16.375 14ZM7.65385 8H23.3462C23.7073 8 24 7.77614 24 7.5C24 7.22386 23.7073 7 23.3462 7H7.65385C7.29274 7 7 7.22386 7 7.5C7 7.77614 7.29274 8 7.65385 8Z" fill="#413E65"/>
</svg>
